<svg width="12" height="12" viewBox="0 0 12 12" fill="none" xmlns="http://www.w3.org/2000/svg">
<path d="M5.80433 0.668884C8.79193 0.668884 11.397 3.00933 11.397 5.71066C11.397 8.36634 8.85065 10.4563 5.80433 10.4563C5.15277 10.4567 4.50527 10.3589 3.88605 10.1665C3.62655 10.4053 3.53763 10.4865 2.98675 10.9907C2.58967 11.2752 2.21608 11.3718 1.8822 11.1924C1.54552 11.0119 1.44429 10.6606 1.51308 10.1978L1.73679 8.96711C0.765343 8.09992 0.21167 6.95358 0.21167 5.71066C0.21167 3.00933 2.81617 0.668884 5.80433 0.668884ZM5.80433 1.41188C3.23954 1.41188 0.994642 3.42859 0.994642 5.71066C0.994642 6.79596 1.50469 7.7953 2.40399 8.53935L2.41518 8.54838L2.58128 8.6853L2.54381 8.89228L2.46663 9.31897L2.44594 9.43254L2.28655 10.3125C2.27741 10.3717 2.27181 10.4314 2.26977 10.4913V10.5417C2.26977 10.5442 2.26865 10.546 2.26865 10.546C2.27257 10.5407 2.34863 10.5179 2.47893 10.4276L3.69254 9.30995L3.92408 9.39274C4.52556 9.60557 5.16239 9.71432 5.80433 9.71382C8.44183 9.71382 10.614 7.93063 10.614 5.71066C10.614 3.42912 8.36913 1.41188 5.80433 1.41188ZM3.13495 4.81534C3.24762 4.81144 3.35997 4.82912 3.46527 4.86734C3.57057 4.90556 3.66668 4.96353 3.74784 5.03779C3.82901 5.11205 3.89357 5.20107 3.93766 5.29954C3.98175 5.398 4.00448 5.50389 4.00448 5.61088C4.00448 5.71787 3.98175 5.82376 3.93766 5.92223C3.89357 6.02069 3.82901 6.10971 3.74784 6.18397C3.66668 6.25823 3.57057 6.3162 3.46527 6.35442C3.35997 6.39264 3.24762 6.41033 3.13495 6.40642C2.91791 6.3989 2.7124 6.31179 2.56166 6.16342C2.41091 6.01505 2.32668 5.81698 2.32668 5.61088C2.32668 5.40478 2.41091 5.20672 2.56166 5.05835C2.7124 4.90998 2.91791 4.82287 3.13495 4.81534ZM5.93017 4.81534C6.04283 4.81144 6.15518 4.82912 6.26048 4.86734C6.36579 4.90556 6.46189 4.96353 6.54306 5.03779C6.62422 5.11205 6.68878 5.20107 6.73287 5.29954C6.77697 5.398 6.79969 5.50389 6.79969 5.61088C6.79969 5.71787 6.77697 5.82376 6.73287 5.92223C6.68878 6.02069 6.62422 6.10971 6.54306 6.18397C6.46189 6.25823 6.36579 6.3162 6.26048 6.35442C6.15518 6.39264 6.04283 6.41033 5.93017 6.40642C5.71312 6.3989 5.50762 6.31179 5.35687 6.16342C5.20613 6.01505 5.12189 5.81698 5.12189 5.61088C5.12189 5.40478 5.20613 5.20672 5.35687 5.05835C5.50762 4.90998 5.71312 4.82287 5.93017 4.81534ZM8.72482 4.81534C8.83749 4.81144 8.94983 4.82912 9.05513 4.86734C9.16044 4.90556 9.25654 4.96353 9.33771 5.03779C9.41887 5.11205 9.48343 5.20107 9.52752 5.29954C9.57162 5.398 9.59435 5.50389 9.59435 5.61088C9.59435 5.71787 9.57162 5.82376 9.52752 5.92223C9.48343 6.02069 9.41887 6.10971 9.33771 6.18397C9.25654 6.25823 9.16044 6.3162 9.05513 6.35442C8.94983 6.39264 8.83749 6.41033 8.72482 6.40642C8.50778 6.3989 8.30227 6.31179 8.15152 6.16342C8.00078 6.01505 7.91655 5.81698 7.91655 5.61088C7.91655 5.40478 8.00078 5.20672 8.15152 5.05835C8.30227 4.90998 8.50778 4.82287 8.72482 4.81534Z" fill="white"/>
</svg>
