<svg width="15" height="10" viewBox="0 0 15 10" fill="none" xmlns="http://www.w3.org/2000/svg">
<path d="M2.34006 0.483612C1.79438 0.483612 1.27106 0.686832 0.885211 1.04857C0.499361 1.4103 0.282593 1.90092 0.282593 2.41249V7.67305C0.282593 8.18462 0.499361 8.67524 0.885211 9.03697C1.27106 9.39871 1.79438 9.60193 2.34006 9.60193H8.6995C9.24517 9.60193 9.7685 9.39871 10.1543 9.03697C10.5402 8.67524 10.757 8.18462 10.757 7.67305V6.55501L13.315 8.6908C13.9172 9.19371 14.8719 8.7925 14.8719 8.03568V1.79174C14.8719 1.03422 13.9172 0.633714 13.315 1.13662L10.757 3.27241V2.41249C10.757 1.90092 10.5402 1.4103 10.1543 1.04857C9.7685 0.686832 9.24517 0.483612 8.6995 0.483612H2.34006Z" fill="white"/>
</svg>
