<svg width="12" height="12" viewBox="0 0 12 12" fill="none" xmlns="http://www.w3.org/2000/svg">
<path d="M5.84293 11.5435C5.0541 11.5435 4.31278 11.3937 3.61899 11.0942C2.92519 10.7946 2.32168 10.3884 1.80846 9.87557C1.29525 9.36273 0.889042 8.75922 0.589855 8.06505C0.290668 7.37087 0.140884 6.62956 0.140504 5.8411C0.140123 5.05264 0.289907 4.31133 0.589855 3.61715C0.889803 2.92298 1.29601 2.31947 1.80846 1.80663C2.32092 1.29379 2.92443 0.887591 3.61899 0.588023C4.31354 0.288456 5.05486 0.138672 5.84293 0.138672C6.63101 0.138672 7.37232 0.288456 8.06688 0.588023C8.76143 0.887591 9.36494 1.29379 9.8774 1.80663C10.3899 2.31947 10.7963 2.92298 11.0966 3.61715C11.3969 4.31133 11.5465 5.05264 11.5454 5.8411C11.5442 6.62956 11.3944 7.37087 11.096 8.06505C10.7976 8.75922 10.3914 9.36273 9.8774 9.87557C9.36342 10.3884 8.75991 10.7948 8.06688 11.0947C7.37384 11.3947 6.63253 11.5443 5.84293 11.5435ZM5.84293 10.403C6.35615 10.403 6.85036 10.32 7.32556 10.1538C7.80077 9.98772 8.23795 9.74764 8.63712 9.43363L2.2504 3.04691C1.93677 3.44608 1.6967 3.88327 1.53019 4.35847C1.36367 4.83367 1.28061 5.32788 1.28099 5.8411C1.28099 7.11464 1.72293 8.19335 2.6068 9.07723C3.49068 9.96111 4.56939 10.403 5.84293 10.403ZM9.43546 8.63529C9.74909 8.23612 9.98917 7.79893 10.1557 7.32373C10.3222 6.84853 10.4053 6.35432 10.4049 5.8411C10.4049 4.56756 9.96294 3.48885 9.07906 2.60497C8.19518 1.7211 7.11647 1.27916 5.84293 1.27916C5.32971 1.27916 4.8355 1.36222 4.3603 1.52835C3.8851 1.69448 3.44791 1.93456 3.04874 2.24857L9.43546 8.63529Z" fill="white"/>
</svg>
